HIERARCHY
ROOT Hips
{
    OFFSET 0.0 0.0 0.0
    CHANNELS 6 Xposition Yposition Zposition Zrotation Xrotation Yrotation
    JOINT LeftHipJoint
    {
        OFFSET 0.1 0.0 0.0
        CHANNELS 3 Zrotation Xrotation Yrotation
        JOINT LeftUpLeg
        {
            OFFSET 119.08129449083395 0.0 0.0
            CHANNELS 3 Zrotation Xrotation Yrotation
            JOINT LeftLeg
            {
                OFFSET 0.0 0.0 -417.3648841072861
                CHANNELS 3 Zrotation Xrotation Yrotation
                JOINT LeftFoot
                {
                    OFFSET 0.0 0.0 -403.9624687207128
                    CHANNELS 3 Zrotation Xrotation Yrotation
                    End Site
                    {
                        OFFSET 0.0 -0.1 0.0
                    }
                }
            }
        }
    }
    JOINT LowerBack
    {
        OFFSET 0.0 0.0 0.1
        CHANNELS 3 Zrotation Xrotation Yrotation
        JOINT Spine
        {
            OFFSET 0.0 0.0 219.89453700806584
            CHANNELS 3 Zrotation Xrotation Yrotation
            JOINT Spine1
            {
                OFFSET 0.0 0.0 249.80262873087395
                CHANNELS 3 Zrotation Xrotation Yrotation
                JOINT LeftShoulder
                {
                    OFFSET 0.1 0.0 0.0
                    CHANNELS 3 Zrotation Xrotation Yrotation
                    JOINT LeftArm
                    {
                        OFFSET 142.06523702244615 0.0 0.0
                        CHANNELS 3 Zrotation Xrotation Yrotation
                        JOINT LeftForeArm
                        {
                            OFFSET 260.86918459022974 0.0 0.0
                            CHANNELS 3 Zrotation Xrotation Yrotation
                            JOINT LeftHand
                            {
                                OFFSET 233.80594253960297 0.0 0.0
                                CHANNELS 3 Zrotation Xrotation Yrotation
                                End Site
                                {
                                    OFFSET 0.1 0.0 0.0
                                }
                            }
                        }
                    }
                }
                JOINT Neck
                {
                    OFFSET 0.0 0.0 0.1
                    CHANNELS 3 Zrotation Xrotation Yrotation
                    JOINT Neck1
                    {
                        OFFSET 0.0 0.0 106.32471793374738
                        CHANNELS 3 Zrotation Xrotation Yrotation
                        End Site
                        {
                            OFFSET 0.0 0.0 113.886858657809
                        }
                    }
                }
                JOINT RightShoulder
                {
                    OFFSET -0.1 0.0 0.0
                    CHANNELS 3 Zrotation Xrotation Yrotation
                    JOINT RightArm
                    {
                        OFFSET -142.06523702244615 0.0 0.0
                        CHANNELS 3 Zrotation Xrotation Yrotation
                        JOINT RightForeArm
                        {
                            OFFSET -260.86918459022974 0.0 0.0
                            CHANNELS 3 Zrotation Xrotation Yrotation
                            JOINT RightHand
                            {
                                OFFSET -233.80594253960297 0.0 0.0
                                CHANNELS 3 Zrotation Xrotation Yrotation
                                End Site
                                {
                                    OFFSET -0.1 0.0 0.0
                                }
                            }
                        }
                    }
                }
            }
        }
    }
    JOINT RightHipJoint
    {
        OFFSET -0.1 0.0 0.0
        CHANNELS 3 Zrotation Xrotation Yrotation
        JOINT RightUpLeg
        {
            OFFSET -119.08129449083395 0.0 0.0
            CHANNELS 3 Zrotation Xrotation Yrotation
            JOINT RightLeg
            {
                OFFSET 0.0 0.0 -417.3648841072861
                CHANNELS 3 Zrotation Xrotation Yrotation
                JOINT RightFoot
                {
                    OFFSET 0.0 0.0 -403.9624687207128
                    CHANNELS 3 Zrotation Xrotation Yrotation
                    End Site
                    {
                        OFFSET 0.0 -0.1 0.0
                    }
                }
            }
        }
    }
}
MOTION
Frames: 10
Frame Time: 0.03333333333333333
0.0 0.0 827.379750153842 25.64772790380013 6.902128757584794 2.337514937620178 0.0 0.0 -3.975693351829396e-16 -0.26537070720245365 -22.695066476232405 0.22524207135522245 0.35537825275166146 21.218559214714457 1.6764925556043482 0.0 0.0 -1.987846675914698e-16 0.0 0.0 -3.975693351829396e-16 -0.0007257984708325932 -0.0651869977915841 -0.4484273494362433 2.0194985956419322 -8.020213746618415e-16 -3.83495235921586e-16 0.0 0.0 3.975693351829396e-16 -28.371737847612273 13.439691515204624 78.35855516329138 -33.73497452119459 -4.197306096696734e-15 2.881785425772079e-15 -1.5902773407317582e-15 -1.0069223742426923e-31 7.255640367088647e-15 0.0 0.0 3.975693351829396e-16 -2.2182721732604453 -3.051594656816875 -0.40009127014970347 0.0 0.0 3.975693351829396e-16 19.865039231123543 7.0153706300774985 -72.69911531522303 41.71357941248061 3.679519402165712e-15 -8.209053637498175e-15 0.0 0.0 -1.5902773407317584e-15 0.0 0.0 -3.975693351829396e-16 -0.21191718724845587 -18.27049993716974 2.015924980529896 1.0086870463917703 20.546375797125453 -1.0811502570974774 0.0 0.0 0.0
0.0 0.0 827.379750153842 25.710074663886786 6.957290538416104 2.3582665792704933 3.1805546814635164e-15 0.0 0.0 -0.2796046508876085 -22.761584104108017 0.25447572939938407 0.38166202411940264 21.29010967468826 1.647305771673127 0.0 0.0 -3.975693351829396e-16 3.1805546814635164e-15 0.0 0.0 -0.001522231004719644 -0.13022965874815778 -0.49247187070764187 2.108925812772236 6.919703180676089e-16 -2.115546922987994e-16 0.0 0.0 -1.987846675914698e-16 -28.30972793891525 13.481312134150356 78.34807840172911 -34.05709879502783 1.746411824900884e-15 -5.702092195006355e-15 0.0 0.0 -1.9878466759146984e-15 0.0 0.0 -1.987846675914698e-16 -2.4124141814711892 -3.034373461763561 -0.4594065635078893 0.0 0.0 -1.987846675914698e-16 20.044597449533928 6.695761210131373 -72.46976042293673 42.33371418545417 -1.8968711949293212e-16 1.7126760731916108e-14 -6.3611093629270335e-15 0.0 0.0 3.1805546814635164e-15 0.0 0.0 -0.22300400002880158 -18.318392052015113 2.0649685595972818 1.0490700340926766 20.714899234628337 -1.1225027282859388 0.0 0.0 0.0
0.0 0.0 827.379750153842 25.820399670001038 6.960307294981928 2.40797036808823 0.0 0.0 -1.987846675914698e-16 -0.31023538168714004 -22.805059524660717 0.2836714179270376 0.4240028962177905 21.325458028397126 1.6545961422536966 0.0 0.0 1.987846675914698e-16 0.0 0.0 -1.987846675914698e-16 -0.0018240074326892574 -0.14105650754655932 -0.598243302883284 2.226678589334764 5.923789918814598e-16 -2.1033442578906764e-16 0.0 0.0 -1.987846675914698e-16 -28.301448975548073 13.758454361033902 78.53889231579706 -34.06215196608394 4.294910971432829e-15 -2.4880017489460326e-14 -1.5902773407317584e-15 -1.9310840053969444e-32 1.3914926731402886e-15 0.0 0.0 -1.987846675914698e-16 -2.593669814770166 -3.050529928410522 -0.49655807786676753 0.0 0.0 -1.987846675914698e-16 20.202940132889704 6.541680545195385 -72.47039569288533 42.48190725657247 -4.609143817774714e-15 -1.1857935848010864e-14 0.0 0.0 1.5902773407317584e-15 0.0 0.0 -1.987846675914698e-16 -0.24648386778057138 -18.31996677580636 2.108467881364732 1.100919094891143 20.834952418908564 -1.2065650038946238 0.0 0.0 -3.975693351829396e-16
0.0 0.0 827.379750153842 26.03461139607844 6.944019404317588 2.4801377958892377 0.0 0.0 -5.963540027744094e-16 -0.32539170243438864 -22.83968315462935 0.29225996466965837 0.44625121269011414 21.507549553075236 1.6482815867580802 0.0 -9.93923337957349e-16 0.0 0.0 0.0 -5.963540027744094e-16 -0.0013172504891752778 -0.09731791626598099 -0.7014980247728037 2.3351656457067156 -4.766055544912927e-16 1.0038434377921666e-15 0.0 0.0 -1.987846675914698e-16 -28.08795754521129 14.24965010764884 78.79666139084205 -34.12905549188379 5.797252861457461e-16 -7.307857861716852e-15 0.0 0.0 -2.4848083448933726e-15 0.0 0.0 -1.987846675914698e-16 -2.7808031133311073 -3.241818467416725 -0.5319867504174973 0.0 0.0 -1.987846675914698e-16 20.489049115105654 6.637001022512631 -72.6769428984842 42.73799622545848 4.635632375398607e-15 1.1847605740765862e-14 0.0 0.0 3.1805546814635168e-15 0.0 0.0 -5.963540027744094e-16 -0.2573209055052397 -18.2810042899348 2.0548427556029694 1.1110098175161538 21.124844738638622 -1.202071245171918 -3.1805546814635168e-15 -1.987846675914698e-16 -3.975693351829396e-16
0.0 0.0 827.379750153842 26.22540038188785 6.883759274690032 2.5745308222637333 0.0 0.0 3.975693351829396e-16 -0.349814935980992 -22.701298635506408 0.2376705997569703 0.4524525645234415 21.54452455260258 1.708281185840833 0.0 0.0 -1.1927080055488188e-15 0.0 0.0 3.975693351829396e-16 -0.00025975503210197404 -0.017733586693588276 -0.7945065316131643 2.4710738791725735 -9.11468218028281e-16 -7.756654627105391e-16 0.0 7.951386703658792e-16 0.0 -27.91277331549918 14.784163239083806 79.00585134747996 -34.25081207244458 -2.278582597562345e-15 -3.4061829920899398e-15 0.0 0.0 -5.963540027744094e-16 0.0 7.951386703658792e-16 0.0 -2.89936928494547 -3.439507780836529 -0.6470507207081633 0.0 7.951386703658792e-16 0.0 20.85118806084116 6.890241420413719 -72.7247778560472 43.12140769791517 3.578390946956187e-15 -8.253638160531269e-15 0.0 0.0 1.5902773407317584e-15 0.0 0.0 3.975693351829396e-16 -0.2765630742203463 -18.168049195229205 1.9814365850605413 1.1170477545617334 21.275619510439043 -1.2379010943739945 0.0 0.0 3.975693351829396e-16
0.0 0.0 827.379750153842 26.455307734218156 6.880477295904077 2.6497188717797724 0.0 0.0 5.963540027744094e-16 -0.3765060291622633 -22.48838892155953 0.19797261306485592 0.46438723337985693 21.412895258243775 1.7027070165912481 0.0 0.0 -3.975693351829396e-16 0.0 0.0 5.963540027744094e-16 2.0215149331494123e-06 0.00012692482840989046 -0.8455837636224911 2.539689561974515 -4.405298439031572e-18 -1.98735848339232e-16 0.0 0.0 -1.987846675914698e-16 -27.815896876984603 15.247050977112998 79.17616321287393 -34.515051235688986 -6.0157656409793175e-15 -2.0769668808144516e-15 -1.5902773407317584e-15 6.896728590703373e-33 -4.969616689786745e-16 0.0 0.0 -1.987846675914698e-16 -2.9894230537633737 -3.6212433632213523 -0.7279633737071369 0.0 0.0 -1.987846675914698e-16 20.67042566333683 7.003554250511549 -72.67568572487227 43.81537425775684 -8.243387145557005e-15 1.3599440077185269e-14 0.0 0.0 1.5902773407317584e-15 0.0 0.0 5.963540027744094e-16 -0.29931302966318163 -18.094492660784773 1.91537775025394 1.1226482695503772 21.300205848657612 -1.082231913872468 0.0 0.0 7.951386703658792e-16
0.0 0.0 827.379750153842 26.53257411492424 6.90360666039601 2.6922774207029603 0.0 0.0 3.975693351829396e-16 -0.38417354704834494 -22.426366624826112 0.19937935330495563 0.4730231141349894 21.378168411512164 1.5944828947666696 6.896728590703373e-33 7.951386703658791e-16 -9.939233379573488e-16 0.0 0.0 3.975693351829396e-16 0.00019116606751015447 0.011726663427511202 -0.8297866642506385 2.6639731231230765 -4.783440220250452e-16 8.06475915411112e-16 0.0 0.0 1.987846675914698e-16 -27.458382403131836 15.70921414773382 79.28321342648873 -34.781600678994444 -1.2205117774775284e-15 -1.4238035760665148e-15 0.0 0.0 -2.683593012484842e-15 0.0 0.0 1.987846675914698e-16 -3.157171486086396 -3.7161392170560013 -0.808172936370404 0.0 0.0 1.987846675914698e-16 20.454380749827152 6.931170903356194 -72.50345831408379 44.785285344332365 0.0 0.0 0.0 0.0 -1.5902773407317584e-15 0.0 0.0 3.975693351829396e-16 -0.30765034998577095 -18.165082814916104 1.8743643273875643 1.1287929659626732 21.528831430658723 -1.0221966257498285 -3.1805546814635168e-15 -1.5902773407317584e-15 -3.975693351829396e-16
0.0 0.0 827.379750153842 26.513941554034247 6.900596566301622 2.803232499770729 0.0 0.0 0.0 -0.3872347334147501 -22.431288676404662 0.11055316018872847 0.4455393276647597 21.56352124665924 1.509795083104922 0.0 0.0 -5.963540027744094e-16 0.0 0.0 0.0 -0.0007364600203621386 -0.04482625195034164 -0.8370878936736122 2.7396114363901782 6.104396272502331e-16 5.819275339187146e-16 0.0 0.0 1.987846675914698e-16 -27.301645572208027 16.06620714094241 79.2313858867857 -35.31127054652018 -4.4858192105238574e-15 -1.6363922324945308e-15 0.0 0.0 -2.782985346280577e-15 0.0 0.0 1.987846675914698e-16 -3.418322278636689 -3.7917975671830084 -1.0289201052539034 0.0 0.0 1.987846675914698e-16 20.185226502894754 6.868270116373211 -72.27586541721408 45.33752941384766 9.547089532492876e-15 6.352963601477533e-15 0.0 0.0 -3.1805546814635168e-15 0.0 0.0 0.0 -0.31142265873816355 -18.23828983537653 1.7909790964624746 1.1108215750808579 21.73839255566225 -1.0172533198746447 0.0 0.0 -3.9756933518293955e-16
0.0 0.0 827.379750153842 26.650400414702005 6.884182804728881 2.895358210117892 0.0 0.0 0.0 -0.4100194611678356 -22.374283812242503 0.05276974851665423 0.45396128279729064 21.846599919374203 1.391713295342937 0.0 0.0 -1.987846675914698e-16 0.0 0.0 0.0 -0.0017375082926769129 -0.09957789529857781 -0.8606335862997151 2.873857534255803 -1.987221567508528e-16 4.984825547661895e-18 -3.1805546814635168e-15 9.93923337957349e-17 1.987846675914698e-16 -27.152068632774085 16.54571257383589 79.19968553955155 -35.77117044793072 1.551920420880366e-15 -1.516513374420736e-14 4.1380371544220234e-32 1.5902773407317588e-15 -2.9817700138720476e-15 -3.1805546814635168e-15 9.93923337957349e-17 1.987846675914698e-16 -3.669708988753594 -3.8863233033160802 -1.2600664564974442 -3.1805546814635168e-15 9.93923337957349e-17 1.987846675914698e-16 20.17143832140056 6.694099051200843 -71.89499461358557 45.949943997376685 5.856517194667902e-15 -2.482925426926306e-15 0.0 0.0 -3.1805546814635168e-15 0.0 0.0 0.0 -0.33146806752023517 -18.270915706515623 1.74308794876996 1.1398403244799227 22.15187214514831 -1.1885254394284583 0.0 0.0 -3.975693351829396e-16
0.0 0.0 827.379750153842 26.75878675781562 6.88810955720887 3.067879559277119 0.0 0.0 3.975693351829396e-16 -0.477552533915818 -22.332116207029266 -0.12240032111947634 0.4610957971173515 22.076495288242274 1.360436665496665 0.0 0.0 0.0 0.0 0.0 3.975693351829396e-16 -0.003654327549522999 -0.17950879995114058 -0.8977001688628876 2.9144608735220965 -7.898262733422236e-16 2.1894133259621102e-16 0.0 0.0 1.987846675914698e-16 -27.289218666189793 17.068510175204164 79.16815486907356 -36.23169112598407 1.6630746779147962e-15 5.145438487347065e-15 0.0 0.0 -1.987846675914698e-15 0.0 0.0 1.987846675914698e-16 -4.045391852263467 -3.920456307564013 -1.5309812930219995 0.0 0.0 1.987846675914698e-16 19.929416258771695 6.799098173071913 -71.68723646760263 46.71086679039264 1.4201561093499472e-14 7.963819078758436e-16 0.0 0.0 -2.3854160110976384e-15 0.0 0.0 3.975693351829396e-16 -0.38636061622648166 -18.26237517149636 1.6112930594749693 1.1807145147918607 22.54940228839104 -1.3383594943780817 0.0 0.0 3.975693351829396e-16
